<?xml version="1.0" encoding="UTF-8" standalone="no"?>
<!DOCTYPE svg PUBLIC "-//W3C//DTD SVG 1.1//EN"
 "http://www.w3.org/Graphics/SVG/1.1/DTD/svg11.dtd">
<!-- Generated by graphviz version 2.40.1 (20161225.0304)
 -->
<!-- Title: dependencies Pages: 1 -->
<svg width="504pt" height="211pt"
 viewBox="0.00 0.00 504.00 211.00" xmlns="http://www.w3.org/2000/svg" xmlns:xlink="http://www.w3.org/1999/xlink">
<g id="graph0" class="graph" transform="scale(1 1) rotate(0) translate(4 207)">
<title>dependencies</title>
<polygon fill="#ffffff" stroke="transparent" points="-4,4 -4,-207 500,-207 500,4 -4,4"/>
<text text-anchor="start" x="227.0091" y="-42.4" font-family="sans-serif" font-weight="bold" font-size="14.00" fill="#000000">Legend</text>
<polygon fill="#ffffb3" stroke="transparent" points="14,-10 14,-30 34,-30 34,-10 14,-10"/>
<text text-anchor="start" x="37.629" y="-15.4" font-family="sans-serif" font-size="14.00" fill="#000000"> &#160;Declarations</text>
<polygon fill="#8dd3c7" stroke="transparent" points="127,-10 127,-30 147,-30 147,-10 127,-10"/>
<text text-anchor="start" x="150.7251" y="-15.4" font-family="sans-serif" font-size="14.00" fill="#000000"> &#160;Module</text>
<polygon fill="#80b1d3" stroke="transparent" points="213,-10 213,-30 233,-30 233,-10 213,-10"/>
<text text-anchor="start" x="236.7812" y="-15.4" font-family="sans-serif" font-size="14.00" fill="#000000"> &#160;Bootstrap</text>
<polygon fill="#fdb462" stroke="transparent" points="310,-10 310,-30 330,-30 330,-10 310,-10"/>
<text text-anchor="start" x="333.6732" y="-15.4" font-family="sans-serif" font-size="14.00" fill="#000000"> &#160;Providers</text>
<polygon fill="#fb8072" stroke="transparent" points="406,-10 406,-30 426,-30 426,-10 406,-10"/>
<text text-anchor="start" x="429.7258" y="-15.4" font-family="sans-serif" font-size="14.00" fill="#000000"> &#160;Exports</text>
<g id="clust1" class="cluster">
<title>cluster_PostsModule</title>
<polygon fill="none" stroke="#000000" stroke-dasharray="1,5" points="39,-70 39,-195 457,-195 457,-70 39,-70"/>
</g>
<g id="clust2" class="cluster">
<title>cluster_PostsModule_declarations</title>
<polygon fill="none" stroke="#000000" points="199,-78 199,-130 449,-130 449,-78 199,-78"/>
</g>
<g id="clust5" class="cluster">
<title>cluster_PostsModule_imports</title>
<polygon fill="none" stroke="#000000" points="47,-78 47,-130 191,-130 191,-78 47,-78"/>
</g>
<!-- PostsComponent -->
<g id="node1" class="node">
<title>PostsComponent</title>
<polygon fill="#ffffb3" stroke="#000000" points="441.3948,-122 330.6052,-122 330.6052,-86 441.3948,-86 441.3948,-122"/>
<text text-anchor="middle" x="386" y="-99.8" font-family="Times,serif" font-size="14.00" fill="#000000">PostsComponent</text>
</g>
<!-- PostsModule -->
<g id="node3" class="node">
<title>PostsModule</title>
<polygon fill="#8dd3c7" stroke="#000000" points="304.6123,-187 301.6123,-191 280.6123,-191 277.6123,-187 215.3877,-187 215.3877,-151 304.6123,-151 304.6123,-187"/>
<text text-anchor="middle" x="260" y="-164.8" font-family="Times,serif" font-size="14.00" fill="#000000">PostsModule</text>
</g>
<!-- PostsComponent&#45;&gt;PostsModule -->
<g id="edge1" class="edge">
<title>PostsComponent&#45;&gt;PostsModule</title>
<path fill="none" stroke="#000000" d="M386,-122.1061C386,-141.3391 386,-169 386,-169 386,-169 314.7777,-169 314.7777,-169"/>
<polygon fill="#000000" stroke="#000000" points="314.7777,-165.5001 304.7777,-169 314.7776,-172.5001 314.7777,-165.5001"/>
</g>
<!-- PostComponent -->
<g id="node2" class="node">
<title>PostComponent</title>
<polygon fill="#ffffb3" stroke="#000000" points="312.9512,-122 207.0488,-122 207.0488,-86 312.9512,-86 312.9512,-122"/>
<text text-anchor="middle" x="260" y="-99.8" font-family="Times,serif" font-size="14.00" fill="#000000">PostComponent</text>
</g>
<!-- PostComponent&#45;&gt;PostsModule -->
<g id="edge2" class="edge">
<title>PostComponent&#45;&gt;PostsModule</title>
<path fill="none" stroke="#000000" d="M260,-122.1061C260,-122.1061 260,-140.991 260,-140.991"/>
<polygon fill="#000000" stroke="#000000" points="256.5001,-140.9909 260,-150.991 263.5001,-140.991 256.5001,-140.9909"/>
</g>
<!-- PostsRouterModule -->
<g id="node4" class="node">
<title>PostsRouterModule</title>
<polygon fill="#8dd3c7" stroke="#000000" points="182.7148,-122 179.7148,-126 158.7148,-126 155.7148,-122 55.2852,-122 55.2852,-86 182.7148,-86 182.7148,-122"/>
<text text-anchor="middle" x="119" y="-99.8" font-family="Times,serif" font-size="14.00" fill="#000000">PostsRouterModule</text>
</g>
<!-- PostsRouterModule&#45;&gt;PostsModule -->
<g id="edge3" class="edge">
<title>PostsRouterModule&#45;&gt;PostsModule</title>
<path fill="none" stroke="#000000" d="M119,-122.1061C119,-141.3391 119,-169 119,-169 119,-169 205.3867,-169 205.3867,-169"/>
<polygon fill="#000000" stroke="#000000" points="205.3868,-172.5001 215.3867,-169 205.3867,-165.5001 205.3868,-172.5001"/>
</g>
</g>
</svg>
