<?xml version="1.0" encoding="UTF-8" standalone="no"?>
<!DOCTYPE svg PUBLIC "-//W3C//DTD SVG 1.1//EN"
 "http://www.w3.org/Graphics/SVG/1.1/DTD/svg11.dtd">
<!-- Generated by graphviz version 2.40.1 (20161225.0304)
 -->
<!-- Title: dependencies Pages: 1 -->
<svg width="566pt" height="211pt"
 viewBox="0.00 0.00 566.00 211.00" xmlns="http://www.w3.org/2000/svg" xmlns:xlink="http://www.w3.org/1999/xlink">
<g id="graph0" class="graph" transform="scale(1 1) rotate(0) translate(4 207)">
<title>dependencies</title>
<polygon fill="#ffffff" stroke="transparent" points="-4,4 -4,-207 562,-207 562,4 -4,4"/>
<text text-anchor="start" x="258.0091" y="-42.4" font-family="sans-serif" font-weight="bold" font-size="14.00" fill="#000000">Legend</text>
<polygon fill="#ffffb3" stroke="transparent" points="45,-10 45,-30 65,-30 65,-10 45,-10"/>
<text text-anchor="start" x="68.629" y="-15.4" font-family="sans-serif" font-size="14.00" fill="#000000"> &#160;Declarations</text>
<polygon fill="#8dd3c7" stroke="transparent" points="158,-10 158,-30 178,-30 178,-10 158,-10"/>
<text text-anchor="start" x="181.7251" y="-15.4" font-family="sans-serif" font-size="14.00" fill="#000000"> &#160;Module</text>
<polygon fill="#80b1d3" stroke="transparent" points="244,-10 244,-30 264,-30 264,-10 244,-10"/>
<text text-anchor="start" x="267.7812" y="-15.4" font-family="sans-serif" font-size="14.00" fill="#000000"> &#160;Bootstrap</text>
<polygon fill="#fdb462" stroke="transparent" points="341,-10 341,-30 361,-30 361,-10 341,-10"/>
<text text-anchor="start" x="364.6732" y="-15.4" font-family="sans-serif" font-size="14.00" fill="#000000"> &#160;Providers</text>
<polygon fill="#fb8072" stroke="transparent" points="437,-10 437,-30 457,-30 457,-10 437,-10"/>
<text text-anchor="start" x="460.7258" y="-15.4" font-family="sans-serif" font-size="14.00" fill="#000000"> &#160;Exports</text>
<g id="clust1" class="cluster">
<title>cluster_MainContentModule</title>
<polygon fill="none" stroke="#000000" stroke-dasharray="1,5" points="8,-70 8,-195 550,-195 550,-70 8,-70"/>
</g>
<g id="clust2" class="cluster">
<title>cluster_MainContentModule_declarations</title>
<polygon fill="none" stroke="#000000" points="16,-78 16,-130 542,-130 542,-78 16,-78"/>
</g>
<!-- ContactFormComponent -->
<g id="node1" class="node">
<title>ContactFormComponent</title>
<polygon fill="#ffffb3" stroke="#000000" points="533.7133,-122 378.2867,-122 378.2867,-86 533.7133,-86 533.7133,-122"/>
<text text-anchor="middle" x="456" y="-99.8" font-family="Times,serif" font-size="14.00" fill="#000000">ContactFormComponent</text>
</g>
<!-- MainContentModule -->
<g id="node4" class="node">
<title>MainContentModule</title>
<polygon fill="#8dd3c7" stroke="#000000" points="349.9327,-187 346.9327,-191 325.9327,-191 322.9327,-187 216.0673,-187 216.0673,-151 349.9327,-151 349.9327,-187"/>
<text text-anchor="middle" x="283" y="-164.8" font-family="Times,serif" font-size="14.00" fill="#000000">MainContentModule</text>
</g>
<!-- ContactFormComponent&#45;&gt;MainContentModule -->
<g id="edge1" class="edge">
<title>ContactFormComponent&#45;&gt;MainContentModule</title>
<path fill="none" stroke="#000000" d="M456,-122.1061C456,-141.3391 456,-169 456,-169 456,-169 359.8863,-169 359.8863,-169"/>
<polygon fill="#000000" stroke="#000000" points="359.8864,-165.5001 349.8863,-169 359.8863,-172.5001 359.8864,-165.5001"/>
</g>
<!-- RightSectionComponent -->
<g id="node2" class="node">
<title>RightSectionComponent</title>
<polygon fill="#ffffb3" stroke="#000000" points="360.4438,-122 205.5562,-122 205.5562,-86 360.4438,-86 360.4438,-122"/>
<text text-anchor="middle" x="283" y="-99.8" font-family="Times,serif" font-size="14.00" fill="#000000">RightSectionComponent</text>
</g>
<!-- RightSectionComponent&#45;&gt;MainContentModule -->
<g id="edge2" class="edge">
<title>RightSectionComponent&#45;&gt;MainContentModule</title>
<path fill="none" stroke="#000000" d="M283,-122.1061C283,-122.1061 283,-140.991 283,-140.991"/>
<polygon fill="#000000" stroke="#000000" points="279.5001,-140.9909 283,-150.991 286.5001,-140.991 279.5001,-140.9909"/>
</g>
<!-- MainWelcomeComponent -->
<g id="node3" class="node">
<title>MainWelcomeComponent</title>
<polygon fill="#ffffb3" stroke="#000000" points="188.0225,-122 23.9775,-122 23.9775,-86 188.0225,-86 188.0225,-122"/>
<text text-anchor="middle" x="106" y="-99.8" font-family="Times,serif" font-size="14.00" fill="#000000">MainWelcomeComponent</text>
</g>
<!-- MainWelcomeComponent&#45;&gt;MainContentModule -->
<g id="edge3" class="edge">
<title>MainWelcomeComponent&#45;&gt;MainContentModule</title>
<path fill="none" stroke="#000000" d="M106,-122.1061C106,-141.3391 106,-169 106,-169 106,-169 206.0839,-169 206.0839,-169"/>
<polygon fill="#000000" stroke="#000000" points="206.0839,-172.5001 216.0839,-169 206.0839,-165.5001 206.0839,-172.5001"/>
</g>
</g>
</svg>
