<?xml version="1.0" encoding="UTF-8" standalone="no"?>
<!DOCTYPE svg PUBLIC "-//W3C//DTD SVG 1.1//EN"
 "http://www.w3.org/Graphics/SVG/1.1/DTD/svg11.dtd">
<!-- Generated by graphviz version 2.40.1 (20161225.0304)
 -->
<!-- Title: dependencies Pages: 1 -->
<svg width="504pt" height="211pt"
 viewBox="0.00 0.00 504.00 211.00" xmlns="http://www.w3.org/2000/svg" xmlns:xlink="http://www.w3.org/1999/xlink">
<g id="graph0" class="graph" transform="scale(1 1) rotate(0) translate(4 207)">
<title>dependencies</title>
<polygon fill="#ffffff" stroke="transparent" points="-4,4 -4,-207 500,-207 500,4 -4,4"/>
<text text-anchor="start" x="227.0091" y="-42.4" font-family="sans-serif" font-weight="bold" font-size="14.00" fill="#000000">Legend</text>
<polygon fill="#ffffb3" stroke="transparent" points="14,-10 14,-30 34,-30 34,-10 14,-10"/>
<text text-anchor="start" x="37.629" y="-15.4" font-family="sans-serif" font-size="14.00" fill="#000000"> &#160;Declarations</text>
<polygon fill="#8dd3c7" stroke="transparent" points="127,-10 127,-30 147,-30 147,-10 127,-10"/>
<text text-anchor="start" x="150.7251" y="-15.4" font-family="sans-serif" font-size="14.00" fill="#000000"> &#160;Module</text>
<polygon fill="#80b1d3" stroke="transparent" points="213,-10 213,-30 233,-30 233,-10 213,-10"/>
<text text-anchor="start" x="236.7812" y="-15.4" font-family="sans-serif" font-size="14.00" fill="#000000"> &#160;Bootstrap</text>
<polygon fill="#fdb462" stroke="transparent" points="310,-10 310,-30 330,-30 330,-10 310,-10"/>
<text text-anchor="start" x="333.6732" y="-15.4" font-family="sans-serif" font-size="14.00" fill="#000000"> &#160;Providers</text>
<polygon fill="#fb8072" stroke="transparent" points="406,-10 406,-30 426,-30 426,-10 406,-10"/>
<text text-anchor="start" x="429.7258" y="-15.4" font-family="sans-serif" font-size="14.00" fill="#000000"> &#160;Exports</text>
<g id="clust1" class="cluster">
<title>cluster_MainContentModule</title>
<polygon fill="none" stroke="#000000" stroke-dasharray="1,5" points="68,-70 68,-195 428,-195 428,-70 68,-70"/>
</g>
<g id="clust2" class="cluster">
<title>cluster_MainContentModule_declarations</title>
<polygon fill="none" stroke="#000000" points="76,-78 76,-130 420,-130 420,-78 76,-78"/>
</g>
<!-- ContactFormComponent -->
<g id="node1" class="node">
<title>ContactFormComponent</title>
<polygon fill="#ffffb3" stroke="#000000" points="411.7133,-122 256.2867,-122 256.2867,-86 411.7133,-86 411.7133,-122"/>
<text text-anchor="middle" x="334" y="-99.8" font-family="Times,serif" font-size="14.00" fill="#000000">ContactFormComponent</text>
</g>
<!-- MainContentModule -->
<g id="node3" class="node">
<title>MainContentModule</title>
<polygon fill="#8dd3c7" stroke="#000000" points="313.9327,-187 310.9327,-191 289.9327,-191 286.9327,-187 180.0673,-187 180.0673,-151 313.9327,-151 313.9327,-187"/>
<text text-anchor="middle" x="247" y="-164.8" font-family="Times,serif" font-size="14.00" fill="#000000">MainContentModule</text>
</g>
<!-- ContactFormComponent&#45;&gt;MainContentModule -->
<g id="edge1" class="edge">
<title>ContactFormComponent&#45;&gt;MainContentModule</title>
<path fill="none" stroke="#000000" d="M285.0547,-122.1061C285.0547,-122.1061 285.0547,-140.991 285.0547,-140.991"/>
<polygon fill="#000000" stroke="#000000" points="281.5548,-140.9909 285.0547,-150.991 288.5548,-140.991 281.5548,-140.9909"/>
</g>
<!-- RightSectionComponent -->
<g id="node2" class="node">
<title>RightSectionComponent</title>
<polygon fill="#ffffb3" stroke="#000000" points="238.4438,-122 83.5562,-122 83.5562,-86 238.4438,-86 238.4438,-122"/>
<text text-anchor="middle" x="161" y="-99.8" font-family="Times,serif" font-size="14.00" fill="#000000">RightSectionComponent</text>
</g>
<!-- RightSectionComponent&#45;&gt;MainContentModule -->
<g id="edge2" class="edge">
<title>RightSectionComponent&#45;&gt;MainContentModule</title>
<path fill="none" stroke="#000000" d="M209.2528,-122.1061C209.2528,-122.1061 209.2528,-140.991 209.2528,-140.991"/>
<polygon fill="#000000" stroke="#000000" points="205.7529,-140.9909 209.2528,-150.991 212.7529,-140.991 205.7529,-140.9909"/>
</g>
</g>
</svg>
