<?xml version="1.0" encoding="UTF-8" standalone="no"?>
<!DOCTYPE svg PUBLIC "-//W3C//DTD SVG 1.1//EN"
 "http://www.w3.org/Graphics/SVG/1.1/DTD/svg11.dtd">
<!-- Generated by graphviz version 2.40.1 (20161225.0304)
 -->
<!-- Title: dependencies Pages: 1 -->
<svg width="684pt" height="211pt"
 viewBox="0.00 0.00 684.00 211.00" xmlns="http://www.w3.org/2000/svg" xmlns:xlink="http://www.w3.org/1999/xlink">
<g id="graph0" class="graph" transform="scale(1 1) rotate(0) translate(4 207)">
<title>dependencies</title>
<polygon fill="#ffffff" stroke="transparent" points="-4,4 -4,-207 680,-207 680,4 -4,4"/>
<text text-anchor="start" x="317.0091" y="-42.4" font-family="sans-serif" font-weight="bold" font-size="14.00" fill="#000000">Legend</text>
<polygon fill="#ffffb3" stroke="transparent" points="104,-10 104,-30 124,-30 124,-10 104,-10"/>
<text text-anchor="start" x="127.629" y="-15.4" font-family="sans-serif" font-size="14.00" fill="#000000"> &#160;Declarations</text>
<polygon fill="#8dd3c7" stroke="transparent" points="217,-10 217,-30 237,-30 237,-10 217,-10"/>
<text text-anchor="start" x="240.7251" y="-15.4" font-family="sans-serif" font-size="14.00" fill="#000000"> &#160;Module</text>
<polygon fill="#80b1d3" stroke="transparent" points="303,-10 303,-30 323,-30 323,-10 303,-10"/>
<text text-anchor="start" x="326.7812" y="-15.4" font-family="sans-serif" font-size="14.00" fill="#000000"> &#160;Bootstrap</text>
<polygon fill="#fdb462" stroke="transparent" points="400,-10 400,-30 420,-30 420,-10 400,-10"/>
<text text-anchor="start" x="423.6732" y="-15.4" font-family="sans-serif" font-size="14.00" fill="#000000"> &#160;Providers</text>
<polygon fill="#fb8072" stroke="transparent" points="496,-10 496,-30 516,-30 516,-10 496,-10"/>
<text text-anchor="start" x="519.7258" y="-15.4" font-family="sans-serif" font-size="14.00" fill="#000000"> &#160;Exports</text>
<g id="clust1" class="cluster">
<title>cluster_MainContentModule</title>
<polygon fill="none" stroke="#000000" stroke-dasharray="1,5" points="8,-70 8,-195 668,-195 668,-70 8,-70"/>
</g>
<g id="clust2" class="cluster">
<title>cluster_MainContentModule_declarations</title>
<polygon fill="none" stroke="#000000" points="172,-78 172,-130 660,-130 660,-78 172,-78"/>
</g>
<g id="clust6" class="cluster">
<title>cluster_MainContentModule_imports</title>
<polygon fill="none" stroke="#000000" points="16,-78 16,-130 164,-130 164,-78 16,-78"/>
</g>
<!-- MainWelcomeComponent -->
<g id="node1" class="node">
<title>MainWelcomeComponent</title>
<polygon fill="#ffffb3" stroke="#000000" points="652.0225,-122 487.9775,-122 487.9775,-86 652.0225,-86 652.0225,-122"/>
<text text-anchor="middle" x="570" y="-99.8" font-family="Times,serif" font-size="14.00" fill="#000000">MainWelcomeComponent</text>
</g>
<!-- MainContentModule -->
<g id="node4" class="node">
<title>MainContentModule</title>
<polygon fill="#8dd3c7" stroke="#000000" points="381.9327,-187 378.9327,-191 357.9327,-191 354.9327,-187 248.0673,-187 248.0673,-151 381.9327,-151 381.9327,-187"/>
<text text-anchor="middle" x="315" y="-164.8" font-family="Times,serif" font-size="14.00" fill="#000000">MainContentModule</text>
</g>
<!-- MainWelcomeComponent&#45;&gt;MainContentModule -->
<g id="edge1" class="edge">
<title>MainWelcomeComponent&#45;&gt;MainContentModule</title>
<path fill="none" stroke="#000000" d="M570,-122.1061C570,-141.3391 570,-169 570,-169 570,-169 391.9982,-169 391.9982,-169"/>
<polygon fill="#000000" stroke="#000000" points="391.9983,-165.5001 381.9982,-169 391.9982,-172.5001 391.9983,-165.5001"/>
</g>
<!-- MainContentComponent -->
<g id="node2" class="node">
<title>MainContentComponent</title>
<polygon fill="#ffffb3" stroke="#000000" points="469.7147,-122 314.2853,-122 314.2853,-86 469.7147,-86 469.7147,-122"/>
<text text-anchor="middle" x="392" y="-99.8" font-family="Times,serif" font-size="14.00" fill="#000000">MainContentComponent</text>
</g>
<!-- MainContentComponent&#45;&gt;MainContentModule -->
<g id="edge2" class="edge">
<title>MainContentComponent&#45;&gt;MainContentModule</title>
<path fill="none" stroke="#000000" d="M348.0544,-122.1061C348.0544,-122.1061 348.0544,-140.991 348.0544,-140.991"/>
<polygon fill="#000000" stroke="#000000" points="344.5544,-140.9909 348.0544,-150.991 351.5544,-140.991 344.5544,-140.9909"/>
</g>
<!-- LogosComponent -->
<g id="node3" class="node">
<title>LogosComponent</title>
<polygon fill="#ffffb3" stroke="#000000" points="296.3301,-122 179.6699,-122 179.6699,-86 296.3301,-86 296.3301,-122"/>
<text text-anchor="middle" x="238" y="-99.8" font-family="Times,serif" font-size="14.00" fill="#000000">LogosComponent</text>
</g>
<!-- LogosComponent&#45;&gt;MainContentModule -->
<g id="edge3" class="edge">
<title>LogosComponent&#45;&gt;MainContentModule</title>
<path fill="none" stroke="#000000" d="M272.2244,-122.1061C272.2244,-122.1061 272.2244,-140.991 272.2244,-140.991"/>
<polygon fill="#000000" stroke="#000000" points="268.7245,-140.9909 272.2244,-150.991 275.7245,-140.991 268.7245,-140.9909"/>
</g>
<!-- RightSectionModule -->
<g id="node5" class="node">
<title>RightSectionModule</title>
<polygon fill="#8dd3c7" stroke="#000000" points="156.161,-122 153.161,-126 132.161,-126 129.161,-122 23.839,-122 23.839,-86 156.161,-86 156.161,-122"/>
<text text-anchor="middle" x="90" y="-99.8" font-family="Times,serif" font-size="14.00" fill="#000000">RightSectionModule</text>
</g>
<!-- RightSectionModule&#45;&gt;MainContentModule -->
<g id="edge4" class="edge">
<title>RightSectionModule&#45;&gt;MainContentModule</title>
<path fill="none" stroke="#000000" d="M90,-122.1061C90,-141.3391 90,-169 90,-169 90,-169 238.1018,-169 238.1018,-169"/>
<polygon fill="#000000" stroke="#000000" points="238.1018,-172.5001 248.1018,-169 238.1017,-165.5001 238.1018,-172.5001"/>
</g>
</g>
</svg>
