<?xml version="1.0" encoding="UTF-8" standalone="no"?>
<!DOCTYPE svg PUBLIC "-//W3C//DTD SVG 1.1//EN"
 "http://www.w3.org/Graphics/SVG/1.1/DTD/svg11.dtd">
<!-- Generated by graphviz version 2.40.1 (20161225.0304)
 -->
<!-- Title: dependencies Pages: 1 -->
<svg width="504pt" height="211pt"
 viewBox="0.00 0.00 504.00 211.00" xmlns="http://www.w3.org/2000/svg" xmlns:xlink="http://www.w3.org/1999/xlink">
<g id="graph0" class="graph" transform="scale(1 1) rotate(0) translate(4 207)">
<title>dependencies</title>
<polygon fill="#ffffff" stroke="transparent" points="-4,4 -4,-207 500,-207 500,4 -4,4"/>
<text text-anchor="start" x="227.0091" y="-42.4" font-family="sans-serif" font-weight="bold" font-size="14.00" fill="#000000">Legend</text>
<polygon fill="#ffffb3" stroke="transparent" points="14,-10 14,-30 34,-30 34,-10 14,-10"/>
<text text-anchor="start" x="37.629" y="-15.4" font-family="sans-serif" font-size="14.00" fill="#000000"> &#160;Declarations</text>
<polygon fill="#8dd3c7" stroke="transparent" points="127,-10 127,-30 147,-30 147,-10 127,-10"/>
<text text-anchor="start" x="150.7251" y="-15.4" font-family="sans-serif" font-size="14.00" fill="#000000"> &#160;Module</text>
<polygon fill="#80b1d3" stroke="transparent" points="213,-10 213,-30 233,-30 233,-10 213,-10"/>
<text text-anchor="start" x="236.7812" y="-15.4" font-family="sans-serif" font-size="14.00" fill="#000000"> &#160;Bootstrap</text>
<polygon fill="#fdb462" stroke="transparent" points="310,-10 310,-30 330,-30 330,-10 310,-10"/>
<text text-anchor="start" x="333.6732" y="-15.4" font-family="sans-serif" font-size="14.00" fill="#000000"> &#160;Providers</text>
<polygon fill="#fb8072" stroke="transparent" points="406,-10 406,-30 426,-30 426,-10 406,-10"/>
<text text-anchor="start" x="429.7258" y="-15.4" font-family="sans-serif" font-size="14.00" fill="#000000"> &#160;Exports</text>
<g id="clust1" class="cluster">
<title>cluster_RightSectionModule</title>
<polygon fill="none" stroke="#000000" stroke-dasharray="1,5" points="103,-70 103,-195 393,-195 393,-70 103,-70"/>
</g>
<g id="clust2" class="cluster">
<title>cluster_RightSectionModule_declarations</title>
<polygon fill="none" stroke="#000000" points="111,-78 111,-130 385,-130 385,-78 111,-78"/>
</g>
<!-- BlogComponent -->
<g id="node1" class="node">
<title>BlogComponent</title>
<polygon fill="#ffffb3" stroke="#000000" points="377.0605,-122 268.9395,-122 268.9395,-86 377.0605,-86 377.0605,-122"/>
<text text-anchor="middle" x="323" y="-99.8" font-family="Times,serif" font-size="14.00" fill="#000000">BlogComponent</text>
</g>
<!-- RightSectionModule -->
<g id="node3" class="node">
<title>RightSectionModule</title>
<polygon fill="#8dd3c7" stroke="#000000" points="318.161,-187 315.161,-191 294.161,-191 291.161,-187 185.839,-187 185.839,-151 318.161,-151 318.161,-187"/>
<text text-anchor="middle" x="252" y="-164.8" font-family="Times,serif" font-size="14.00" fill="#000000">RightSectionModule</text>
</g>
<!-- BlogComponent&#45;&gt;RightSectionModule -->
<g id="edge1" class="edge">
<title>BlogComponent&#45;&gt;RightSectionModule</title>
<path fill="none" stroke="#000000" d="M293.5253,-122.1061C293.5253,-122.1061 293.5253,-140.991 293.5253,-140.991"/>
<polygon fill="#000000" stroke="#000000" points="290.0253,-140.9909 293.5253,-150.991 297.0253,-140.991 290.0253,-140.9909"/>
</g>
<!-- PortfolioComponent -->
<g id="node2" class="node">
<title>PortfolioComponent</title>
<polygon fill="#ffffb3" stroke="#000000" points="250.608,-122 119.392,-122 119.392,-86 250.608,-86 250.608,-122"/>
<text text-anchor="middle" x="185" y="-99.8" font-family="Times,serif" font-size="14.00" fill="#000000">PortfolioComponent</text>
</g>
<!-- PortfolioComponent&#45;&gt;RightSectionModule -->
<g id="edge2" class="edge">
<title>PortfolioComponent&#45;&gt;RightSectionModule</title>
<path fill="none" stroke="#000000" d="M218.1119,-122.1061C218.1119,-122.1061 218.1119,-140.991 218.1119,-140.991"/>
<polygon fill="#000000" stroke="#000000" points="214.6119,-140.9909 218.1119,-150.991 221.6119,-140.991 214.6119,-140.9909"/>
</g>
</g>
</svg>
