<?xml version="1.0" encoding="UTF-8" standalone="no"?>
<!DOCTYPE svg PUBLIC "-//W3C//DTD SVG 1.1//EN"
 "http://www.w3.org/Graphics/SVG/1.1/DTD/svg11.dtd">
<!-- Generated by graphviz version 2.40.1 (20161225.0304)
 -->
<!-- Title: dependencies Pages: 1 -->
<svg width="659pt" height="284pt"
 viewBox="0.00 0.00 659.00 284.00" xmlns="http://www.w3.org/2000/svg" xmlns:xlink="http://www.w3.org/1999/xlink">
<g id="graph0" class="graph" transform="scale(1 1) rotate(0) translate(4 280)">
<title>dependencies</title>
<polygon fill="#ffffff" stroke="transparent" points="-4,4 -4,-280 655,-280 655,4 -4,4"/>
<text text-anchor="start" x="304.5091" y="-42.4" font-family="sans-serif" font-weight="bold" font-size="14.00" fill="#000000">Legend</text>
<polygon fill="#ffffb3" stroke="transparent" points="91.5,-10 91.5,-30 111.5,-30 111.5,-10 91.5,-10"/>
<text text-anchor="start" x="115.129" y="-15.4" font-family="sans-serif" font-size="14.00" fill="#000000"> &#160;Declarations</text>
<polygon fill="#8dd3c7" stroke="transparent" points="204.5,-10 204.5,-30 224.5,-30 224.5,-10 204.5,-10"/>
<text text-anchor="start" x="228.2251" y="-15.4" font-family="sans-serif" font-size="14.00" fill="#000000"> &#160;Module</text>
<polygon fill="#80b1d3" stroke="transparent" points="290.5,-10 290.5,-30 310.5,-30 310.5,-10 290.5,-10"/>
<text text-anchor="start" x="314.2812" y="-15.4" font-family="sans-serif" font-size="14.00" fill="#000000"> &#160;Bootstrap</text>
<polygon fill="#fdb462" stroke="transparent" points="387.5,-10 387.5,-30 407.5,-30 407.5,-10 387.5,-10"/>
<text text-anchor="start" x="411.1732" y="-15.4" font-family="sans-serif" font-size="14.00" fill="#000000"> &#160;Providers</text>
<polygon fill="#fb8072" stroke="transparent" points="483.5,-10 483.5,-30 503.5,-30 503.5,-10 483.5,-10"/>
<text text-anchor="start" x="507.2258" y="-15.4" font-family="sans-serif" font-size="14.00" fill="#000000"> &#160;Exports</text>
<g id="clust1" class="cluster">
<title>cluster_RightSectionModule</title>
<polygon fill="none" stroke="#000000" stroke-dasharray="1,5" points="8,-70 8,-268 643,-268 643,-70 8,-70"/>
</g>
<g id="clust2" class="cluster">
<title>cluster_RightSectionModule_declarations</title>
<polygon fill="none" stroke="#000000" points="16,-78 16,-130 635,-130 635,-78 16,-78"/>
</g>
<g id="clust8" class="cluster">
<title>cluster_RightSectionModule_exports</title>
<polygon fill="none" stroke="#000000" points="267,-208 267,-260 441,-260 441,-208 267,-208"/>
</g>
<!-- BlogComponent -->
<g id="node1" class="node">
<title>BlogComponent</title>
<polygon fill="#ffffb3" stroke="#000000" points="627.0605,-122 518.9395,-122 518.9395,-86 627.0605,-86 627.0605,-122"/>
<text text-anchor="middle" x="573" y="-99.8" font-family="Times,serif" font-size="14.00" fill="#000000">BlogComponent</text>
</g>
<!-- RightSectionModule -->
<g id="node5" class="node">
<title>RightSectionModule</title>
<polygon fill="#8dd3c7" stroke="#000000" points="420.161,-187 417.161,-191 396.161,-191 393.161,-187 287.839,-187 287.839,-151 420.161,-151 420.161,-187"/>
<text text-anchor="middle" x="354" y="-164.8" font-family="Times,serif" font-size="14.00" fill="#000000">RightSectionModule</text>
</g>
<!-- BlogComponent&#45;&gt;RightSectionModule -->
<g id="edge1" class="edge">
<title>BlogComponent&#45;&gt;RightSectionModule</title>
<path fill="none" stroke="#000000" d="M573,-122.1061C573,-141.3391 573,-169 573,-169 573,-169 430.3015,-169 430.3015,-169"/>
<polygon fill="#000000" stroke="#000000" points="430.3016,-165.5001 420.3015,-169 430.3015,-172.5001 430.3016,-165.5001"/>
</g>
<!-- PortfolioComponent -->
<g id="node2" class="node">
<title>PortfolioComponent</title>
<polygon fill="#ffffb3" stroke="#000000" points="500.608,-122 369.392,-122 369.392,-86 500.608,-86 500.608,-122"/>
<text text-anchor="middle" x="435" y="-99.8" font-family="Times,serif" font-size="14.00" fill="#000000">PortfolioComponent</text>
</g>
<!-- PortfolioComponent&#45;&gt;RightSectionModule -->
<g id="edge2" class="edge">
<title>PortfolioComponent&#45;&gt;RightSectionModule</title>
<path fill="none" stroke="#000000" d="M394.8882,-122.1061C394.8882,-122.1061 394.8882,-140.991 394.8882,-140.991"/>
<polygon fill="#000000" stroke="#000000" points="391.3882,-140.9909 394.8882,-150.991 398.3882,-140.991 391.3882,-140.9909"/>
</g>
<!-- ContactFormComponent -->
<g id="node3" class="node">
<title>ContactFormComponent</title>
<polygon fill="#ffffb3" stroke="#000000" points="351.7133,-122 196.2867,-122 196.2867,-86 351.7133,-86 351.7133,-122"/>
<text text-anchor="middle" x="274" y="-99.8" font-family="Times,serif" font-size="14.00" fill="#000000">ContactFormComponent</text>
</g>
<!-- ContactFormComponent&#45;&gt;RightSectionModule -->
<g id="edge3" class="edge">
<title>ContactFormComponent&#45;&gt;RightSectionModule</title>
<path fill="none" stroke="#000000" d="M319.6382,-122.1061C319.6382,-122.1061 319.6382,-140.991 319.6382,-140.991"/>
<polygon fill="#000000" stroke="#000000" points="316.1382,-140.9909 319.6382,-150.991 323.1382,-140.991 316.1382,-140.9909"/>
</g>
<!-- RightSectionComponent -->
<g id="node4" class="node">
<title>RightSectionComponent</title>
<polygon fill="#ffffb3" stroke="#000000" points="178.4438,-122 23.5562,-122 23.5562,-86 178.4438,-86 178.4438,-122"/>
<text text-anchor="middle" x="101" y="-99.8" font-family="Times,serif" font-size="14.00" fill="#000000">RightSectionComponent</text>
</g>
<!-- RightSectionComponent&#45;&gt;RightSectionModule -->
<g id="edge4" class="edge">
<title>RightSectionComponent&#45;&gt;RightSectionModule</title>
<path fill="none" stroke="#000000" d="M101,-122.1061C101,-141.3391 101,-169 101,-169 101,-169 277.5272,-169 277.5272,-169"/>
<polygon fill="#000000" stroke="#000000" points="277.5273,-172.5001 287.5272,-169 277.5272,-165.5001 277.5273,-172.5001"/>
</g>
<!-- RightSectionComponent  -->
<g id="node6" class="node">
<title>RightSectionComponent </title>
<polygon fill="#fb8072" stroke="#000000" points="432.9432,-252 275.0568,-252 275.0568,-216 432.9432,-216 432.9432,-252"/>
<text text-anchor="middle" x="354" y="-229.8" font-family="Times,serif" font-size="14.00" fill="#000000">RightSectionComponent </text>
</g>
<!-- RightSectionModule&#45;&gt;RightSectionComponent  -->
<g id="edge5" class="edge">
<title>RightSectionModule&#45;&gt;RightSectionComponent </title>
<path fill="none" stroke="#000000" stroke-dasharray="5,2" d="M354,-187.1061C354,-187.1061 354,-205.991 354,-205.991"/>
<polygon fill="#000000" stroke="#000000" points="350.5001,-205.9909 354,-215.991 357.5001,-205.991 350.5001,-205.9909"/>
</g>
</g>
</svg>
