<?xml version="1.0" encoding="UTF-8" standalone="no"?>
<!DOCTYPE svg PUBLIC "-//W3C//DTD SVG 1.1//EN"
 "http://www.w3.org/Graphics/SVG/1.1/DTD/svg11.dtd">
<!-- Generated by graphviz version 2.40.1 (20161225.0304)
 -->
<!-- Title: dependencies Pages: 1 -->
<svg width="1117pt" height="284pt"
 viewBox="0.00 0.00 1117.00 284.00" xmlns="http://www.w3.org/2000/svg" xmlns:xlink="http://www.w3.org/1999/xlink">
<g id="graph0" class="graph" transform="scale(1 1) rotate(0) translate(4 280)">
<title>dependencies</title>
<polygon fill="#ffffff" stroke="transparent" points="-4,4 -4,-280 1113,-280 1113,4 -4,4"/>
<text text-anchor="start" x="533.5091" y="-42.4" font-family="sans-serif" font-weight="bold" font-size="14.00" fill="#000000">Legend</text>
<polygon fill="#ffffb3" stroke="transparent" points="320.5,-10 320.5,-30 340.5,-30 340.5,-10 320.5,-10"/>
<text text-anchor="start" x="344.129" y="-15.4" font-family="sans-serif" font-size="14.00" fill="#000000"> &#160;Declarations</text>
<polygon fill="#8dd3c7" stroke="transparent" points="433.5,-10 433.5,-30 453.5,-30 453.5,-10 433.5,-10"/>
<text text-anchor="start" x="457.2251" y="-15.4" font-family="sans-serif" font-size="14.00" fill="#000000"> &#160;Module</text>
<polygon fill="#80b1d3" stroke="transparent" points="519.5,-10 519.5,-30 539.5,-30 539.5,-10 519.5,-10"/>
<text text-anchor="start" x="543.2812" y="-15.4" font-family="sans-serif" font-size="14.00" fill="#000000"> &#160;Bootstrap</text>
<polygon fill="#fdb462" stroke="transparent" points="616.5,-10 616.5,-30 636.5,-30 636.5,-10 616.5,-10"/>
<text text-anchor="start" x="640.1732" y="-15.4" font-family="sans-serif" font-size="14.00" fill="#000000"> &#160;Providers</text>
<polygon fill="#fb8072" stroke="transparent" points="712.5,-10 712.5,-30 732.5,-30 732.5,-10 712.5,-10"/>
<text text-anchor="start" x="736.2258" y="-15.4" font-family="sans-serif" font-size="14.00" fill="#000000"> &#160;Exports</text>
<g id="clust1" class="cluster">
<title>cluster_AppModule</title>
<polygon fill="none" stroke="#000000" stroke-dasharray="1,5" points="8,-70 8,-268 1101,-268 1101,-70 8,-70"/>
</g>
<g id="clust2" class="cluster">
<title>cluster_AppModule_declarations</title>
<polygon fill="none" stroke="#000000" points="300,-78 300,-130 1093,-130 1093,-78 300,-78"/>
</g>
<g id="clust8" class="cluster">
<title>cluster_AppModule_imports</title>
<polygon fill="none" stroke="#000000" points="148,-78 148,-130 292,-130 292,-78 148,-78"/>
</g>
<g id="clust10" class="cluster">
<title>cluster_AppModule_bootstrap</title>
<polygon fill="none" stroke="#000000" points="496,-208 496,-260 620,-260 620,-208 496,-208"/>
</g>
<g id="clust11" class="cluster">
<title>cluster_AppModule_providers</title>
<polygon fill="none" stroke="#000000" points="16,-78 16,-130 140,-130 140,-78 16,-78"/>
</g>
<!-- AppComponent -->
<g id="node1" class="node">
<title>AppComponent</title>
<polygon fill="#ffffb3" stroke="#000000" points="1084.9399,-122 979.0601,-122 979.0601,-86 1084.9399,-86 1084.9399,-122"/>
<text text-anchor="middle" x="1032" y="-99.8" font-family="Times,serif" font-size="14.00" fill="#000000">AppComponent</text>
</g>
<!-- AppModule -->
<g id="node6" class="node">
<title>AppModule</title>
<polygon fill="#8dd3c7" stroke="#000000" points="599.6571,-187 596.6571,-191 575.6571,-191 572.6571,-187 516.3429,-187 516.3429,-151 599.6571,-151 599.6571,-187"/>
<text text-anchor="middle" x="558" y="-164.8" font-family="Times,serif" font-size="14.00" fill="#000000">AppModule</text>
</g>
<!-- AppComponent&#45;&gt;AppModule -->
<g id="edge1" class="edge">
<title>AppComponent&#45;&gt;AppModule</title>
<path fill="none" stroke="#000000" d="M1032,-122.2921C1032,-144.2057 1032,-178 1032,-178 1032,-178 610.0643,-178 610.0643,-178"/>
<polygon fill="#000000" stroke="#000000" points="610.0644,-174.5001 600.0643,-178 610.0643,-181.5001 610.0644,-174.5001"/>
</g>
<!-- MenuBarComponent -->
<g id="node2" class="node">
<title>MenuBarComponent</title>
<polygon fill="#ffffb3" stroke="#000000" points="961.2036,-122 826.7964,-122 826.7964,-86 961.2036,-86 961.2036,-122"/>
<text text-anchor="middle" x="894" y="-99.8" font-family="Times,serif" font-size="14.00" fill="#000000">MenuBarComponent</text>
</g>
<!-- MenuBarComponent&#45;&gt;AppModule -->
<g id="edge2" class="edge">
<title>MenuBarComponent&#45;&gt;AppModule</title>
<path fill="none" stroke="#000000" d="M894,-122.1061C894,-141.3391 894,-169 894,-169 894,-169 609.8753,-169 609.8753,-169"/>
<polygon fill="#000000" stroke="#000000" points="609.8753,-165.5001 599.8753,-169 609.8752,-172.5001 609.8753,-165.5001"/>
</g>
<!-- ContactFormComponent -->
<g id="node3" class="node">
<title>ContactFormComponent</title>
<polygon fill="#ffffb3" stroke="#000000" points="808.7133,-122 653.2867,-122 653.2867,-86 808.7133,-86 808.7133,-122"/>
<text text-anchor="middle" x="731" y="-99.8" font-family="Times,serif" font-size="14.00" fill="#000000">ContactFormComponent</text>
</g>
<!-- ContactFormComponent&#45;&gt;AppModule -->
<g id="edge3" class="edge">
<title>ContactFormComponent&#45;&gt;AppModule</title>
<path fill="none" stroke="#000000" d="M731,-122.027C731,-138.3976 731,-160 731,-160 731,-160 609.8785,-160 609.8785,-160"/>
<polygon fill="#000000" stroke="#000000" points="609.8785,-156.5001 599.8785,-160 609.8784,-163.5001 609.8785,-156.5001"/>
</g>
<!-- MainContentComponent -->
<g id="node4" class="node">
<title>MainContentComponent</title>
<polygon fill="#ffffb3" stroke="#000000" points="635.7147,-122 480.2853,-122 480.2853,-86 635.7147,-86 635.7147,-122"/>
<text text-anchor="middle" x="558" y="-99.8" font-family="Times,serif" font-size="14.00" fill="#000000">MainContentComponent</text>
</g>
<!-- MainContentComponent&#45;&gt;AppModule -->
<g id="edge4" class="edge">
<title>MainContentComponent&#45;&gt;AppModule</title>
<path fill="none" stroke="#000000" d="M558,-122.1061C558,-122.1061 558,-140.991 558,-140.991"/>
<polygon fill="#000000" stroke="#000000" points="554.5001,-140.9909 558,-150.991 561.5001,-140.991 554.5001,-140.9909"/>
</g>
<!-- RightSectionComponent -->
<g id="node5" class="node">
<title>RightSectionComponent</title>
<polygon fill="#ffffb3" stroke="#000000" points="462.4438,-122 307.5562,-122 307.5562,-86 462.4438,-86 462.4438,-122"/>
<text text-anchor="middle" x="385" y="-99.8" font-family="Times,serif" font-size="14.00" fill="#000000">RightSectionComponent</text>
</g>
<!-- RightSectionComponent&#45;&gt;AppModule -->
<g id="edge5" class="edge">
<title>RightSectionComponent&#45;&gt;AppModule</title>
<path fill="none" stroke="#000000" d="M385,-122.027C385,-138.3976 385,-160 385,-160 385,-160 506.1215,-160 506.1215,-160"/>
<polygon fill="#000000" stroke="#000000" points="506.1216,-163.5001 516.1215,-160 506.1215,-156.5001 506.1216,-163.5001"/>
</g>
<!-- AppComponent  -->
<g id="node8" class="node">
<title>AppComponent </title>
<polygon fill="#80b1d3" stroke="#000000" points="612.439,-252 503.561,-252 503.561,-216 612.439,-216 612.439,-252"/>
<text text-anchor="middle" x="558" y="-229.8" font-family="Times,serif" font-size="14.00" fill="#000000">AppComponent </text>
</g>
<!-- AppModule&#45;&gt;AppComponent  -->
<g id="edge7" class="edge">
<title>AppModule&#45;&gt;AppComponent </title>
<path fill="none" stroke="#000000" stroke-dasharray="1,5" d="M558,-187.1061C558,-187.1061 558,-205.991 558,-205.991"/>
<polygon fill="#000000" stroke="#000000" points="554.5001,-205.9909 558,-215.991 561.5001,-205.991 554.5001,-205.9909"/>
</g>
<!-- AppRoutingModule -->
<g id="node7" class="node">
<title>AppRoutingModule</title>
<polygon fill="#8dd3c7" stroke="#000000" points="284.2744,-122 281.2744,-126 260.2744,-126 257.2744,-122 155.7256,-122 155.7256,-86 284.2744,-86 284.2744,-122"/>
<text text-anchor="middle" x="220" y="-99.8" font-family="Times,serif" font-size="14.00" fill="#000000">AppRoutingModule</text>
</g>
<!-- AppRoutingModule&#45;&gt;AppModule -->
<g id="edge6" class="edge">
<title>AppRoutingModule&#45;&gt;AppModule</title>
<path fill="none" stroke="#000000" d="M220,-122.1061C220,-141.3391 220,-169 220,-169 220,-169 506.2156,-169 506.2156,-169"/>
<polygon fill="#000000" stroke="#000000" points="506.2156,-172.5001 516.2156,-169 506.2155,-165.5001 506.2156,-172.5001"/>
</g>
<!-- ApiService -->
<g id="node9" class="node">
<title>ApiService</title>
<ellipse fill="#fdb462" stroke="#000000" cx="78" cy="-104" rx="54.4508" ry="18"/>
<text text-anchor="middle" x="78" y="-99.8" font-family="Times,serif" font-size="14.00" fill="#000000">ApiService</text>
</g>
<!-- ApiService&#45;&gt;AppModule -->
<g id="edge8" class="edge">
<title>ApiService&#45;&gt;AppModule</title>
<path fill="none" stroke="#000000" d="M78,-122.2921C78,-144.2057 78,-178 78,-178 78,-178 506.2428,-178 506.2428,-178"/>
<polygon fill="#000000" stroke="#000000" points="506.2429,-181.5001 516.2428,-178 506.2428,-174.5001 506.2429,-181.5001"/>
</g>
</g>
</svg>
