<?xml version="1.0" encoding="UTF-8" standalone="no"?>
<!DOCTYPE svg PUBLIC "-//W3C//DTD SVG 1.1//EN"
 "http://www.w3.org/Graphics/SVG/1.1/DTD/svg11.dtd">
<!-- Generated by graphviz version 2.40.1 (20161225.0304)
 -->
<!-- Title: dependencies Pages: 1 -->
<svg width="1710pt" height="284pt"
 viewBox="0.00 0.00 1710.00 284.00" xmlns="http://www.w3.org/2000/svg" xmlns:xlink="http://www.w3.org/1999/xlink">
<g id="graph0" class="graph" transform="scale(1 1) rotate(0) translate(4 280)">
<title>dependencies</title>
<polygon fill="#ffffff" stroke="transparent" points="-4,4 -4,-280 1706,-280 1706,4 -4,4"/>
<text text-anchor="start" x="830.0091" y="-42.4" font-family="sans-serif" font-weight="bold" font-size="14.00" fill="#000000">Legend</text>
<polygon fill="#ffffb3" stroke="transparent" points="617,-10 617,-30 637,-30 637,-10 617,-10"/>
<text text-anchor="start" x="640.629" y="-15.4" font-family="sans-serif" font-size="14.00" fill="#000000"> &#160;Declarations</text>
<polygon fill="#8dd3c7" stroke="transparent" points="730,-10 730,-30 750,-30 750,-10 730,-10"/>
<text text-anchor="start" x="753.7251" y="-15.4" font-family="sans-serif" font-size="14.00" fill="#000000"> &#160;Module</text>
<polygon fill="#80b1d3" stroke="transparent" points="816,-10 816,-30 836,-30 836,-10 816,-10"/>
<text text-anchor="start" x="839.7812" y="-15.4" font-family="sans-serif" font-size="14.00" fill="#000000"> &#160;Bootstrap</text>
<polygon fill="#fdb462" stroke="transparent" points="913,-10 913,-30 933,-30 933,-10 913,-10"/>
<text text-anchor="start" x="936.6732" y="-15.4" font-family="sans-serif" font-size="14.00" fill="#000000"> &#160;Providers</text>
<polygon fill="#fb8072" stroke="transparent" points="1009,-10 1009,-30 1029,-30 1029,-10 1009,-10"/>
<text text-anchor="start" x="1032.7258" y="-15.4" font-family="sans-serif" font-size="14.00" fill="#000000"> &#160;Exports</text>
<g id="clust1" class="cluster">
<title>cluster_AppModule</title>
<polygon fill="none" stroke="#000000" stroke-dasharray="1,5" points="8,-70 8,-268 1694,-268 1694,-70 8,-70"/>
</g>
<g id="clust2" class="cluster">
<title>cluster_AppModule_declarations</title>
<polygon fill="none" stroke="#000000" points="300,-78 300,-130 1686,-130 1686,-78 300,-78"/>
</g>
<g id="clust12" class="cluster">
<title>cluster_AppModule_imports</title>
<polygon fill="none" stroke="#000000" points="148,-78 148,-130 292,-130 292,-78 148,-78"/>
</g>
<g id="clust14" class="cluster">
<title>cluster_AppModule_bootstrap</title>
<polygon fill="none" stroke="#000000" points="766,-208 766,-260 890,-260 890,-208 766,-208"/>
</g>
<g id="clust15" class="cluster">
<title>cluster_AppModule_providers</title>
<polygon fill="none" stroke="#000000" points="16,-78 16,-130 140,-130 140,-78 16,-78"/>
</g>
<!-- AppComponent -->
<g id="node1" class="node">
<title>AppComponent</title>
<polygon fill="#ffffb3" stroke="#000000" points="1677.9399,-122 1572.0601,-122 1572.0601,-86 1677.9399,-86 1677.9399,-122"/>
<text text-anchor="middle" x="1625" y="-99.8" font-family="Times,serif" font-size="14.00" fill="#000000">AppComponent</text>
</g>
<!-- AppModule -->
<g id="node10" class="node">
<title>AppModule</title>
<polygon fill="#8dd3c7" stroke="#000000" points="869.6571,-187 866.6571,-191 845.6571,-191 842.6571,-187 786.3429,-187 786.3429,-151 869.6571,-151 869.6571,-187"/>
<text text-anchor="middle" x="828" y="-164.8" font-family="Times,serif" font-size="14.00" fill="#000000">AppModule</text>
</g>
<!-- AppComponent&#45;&gt;AppModule -->
<g id="edge1" class="edge">
<title>AppComponent&#45;&gt;AppModule</title>
<path fill="none" stroke="#000000" d="M1625,-122.2479C1625,-145.0179 1625,-181 1625,-181 1625,-181 879.728,-181 879.728,-181"/>
<polygon fill="#000000" stroke="#000000" points="879.7281,-177.5001 869.728,-181 879.728,-184.5001 879.7281,-177.5001"/>
</g>
<!-- MenuBarComponent -->
<g id="node2" class="node">
<title>MenuBarComponent</title>
<polygon fill="#ffffb3" stroke="#000000" points="1554.2036,-122 1419.7964,-122 1419.7964,-86 1554.2036,-86 1554.2036,-122"/>
<text text-anchor="middle" x="1487" y="-99.8" font-family="Times,serif" font-size="14.00" fill="#000000">MenuBarComponent</text>
</g>
<!-- MenuBarComponent&#45;&gt;AppModule -->
<g id="edge2" class="edge">
<title>MenuBarComponent&#45;&gt;AppModule</title>
<path fill="none" stroke="#000000" d="M1487,-122.2843C1487,-143.3211 1487,-175 1487,-175 1487,-175 879.7233,-175 879.7233,-175"/>
<polygon fill="#000000" stroke="#000000" points="879.7234,-171.5001 869.7233,-175 879.7233,-178.5001 879.7234,-171.5001"/>
</g>
<!-- ContactFormComponent -->
<g id="node3" class="node">
<title>ContactFormComponent</title>
<polygon fill="#ffffb3" stroke="#000000" points="1401.7133,-122 1246.2867,-122 1246.2867,-86 1401.7133,-86 1401.7133,-122"/>
<text text-anchor="middle" x="1324" y="-99.8" font-family="Times,serif" font-size="14.00" fill="#000000">ContactFormComponent</text>
</g>
<!-- ContactFormComponent&#45;&gt;AppModule -->
<g id="edge3" class="edge">
<title>ContactFormComponent&#45;&gt;AppModule</title>
<path fill="none" stroke="#000000" d="M1324,-122.1061C1324,-141.3391 1324,-169 1324,-169 1324,-169 879.8612,-169 879.8612,-169"/>
<polygon fill="#000000" stroke="#000000" points="879.8612,-165.5001 869.8612,-169 879.8612,-172.5001 879.8612,-165.5001"/>
</g>
<!-- MainContentComponent -->
<g id="node4" class="node">
<title>MainContentComponent</title>
<polygon fill="#ffffb3" stroke="#000000" points="1228.7147,-122 1073.2853,-122 1073.2853,-86 1228.7147,-86 1228.7147,-122"/>
<text text-anchor="middle" x="1151" y="-99.8" font-family="Times,serif" font-size="14.00" fill="#000000">MainContentComponent</text>
</g>
<!-- MainContentComponent&#45;&gt;AppModule -->
<g id="edge4" class="edge">
<title>MainContentComponent&#45;&gt;AppModule</title>
<path fill="none" stroke="#000000" d="M1151,-122.0225C1151,-139.3734 1151,-163 1151,-163 1151,-163 879.8955,-163 879.8955,-163"/>
<polygon fill="#000000" stroke="#000000" points="879.8955,-159.5001 869.8955,-163 879.8954,-166.5001 879.8955,-159.5001"/>
</g>
<!-- RightSectionComponent -->
<g id="node5" class="node">
<title>RightSectionComponent</title>
<polygon fill="#ffffb3" stroke="#000000" points="1055.4438,-122 900.5562,-122 900.5562,-86 1055.4438,-86 1055.4438,-122"/>
<text text-anchor="middle" x="978" y="-99.8" font-family="Times,serif" font-size="14.00" fill="#000000">RightSectionComponent</text>
</g>
<!-- RightSectionComponent&#45;&gt;AppModule -->
<g id="edge5" class="edge">
<title>RightSectionComponent&#45;&gt;AppModule</title>
<path fill="none" stroke="#000000" d="M978,-122.2396C978,-137.5706 978,-157 978,-157 978,-157 879.7834,-157 879.7834,-157"/>
<polygon fill="#000000" stroke="#000000" points="879.7834,-153.5001 869.7834,-157 879.7833,-160.5001 879.7834,-153.5001"/>
</g>
<!-- BlogComponent -->
<g id="node6" class="node">
<title>BlogComponent</title>
<polygon fill="#ffffb3" stroke="#000000" points="882.0605,-122 773.9395,-122 773.9395,-86 882.0605,-86 882.0605,-122"/>
<text text-anchor="middle" x="828" y="-99.8" font-family="Times,serif" font-size="14.00" fill="#000000">BlogComponent</text>
</g>
<!-- BlogComponent&#45;&gt;AppModule -->
<g id="edge6" class="edge">
<title>BlogComponent&#45;&gt;AppModule</title>
<path fill="none" stroke="#000000" d="M828,-122.1061C828,-122.1061 828,-140.991 828,-140.991"/>
<polygon fill="#000000" stroke="#000000" points="824.5001,-140.9909 828,-150.991 831.5001,-140.991 824.5001,-140.9909"/>
</g>
<!-- PortfolioComponent -->
<g id="node7" class="node">
<title>PortfolioComponent</title>
<polygon fill="#ffffb3" stroke="#000000" points="755.608,-122 624.392,-122 624.392,-86 755.608,-86 755.608,-122"/>
<text text-anchor="middle" x="690" y="-99.8" font-family="Times,serif" font-size="14.00" fill="#000000">PortfolioComponent</text>
</g>
<!-- PortfolioComponent&#45;&gt;AppModule -->
<g id="edge7" class="edge">
<title>PortfolioComponent&#45;&gt;AppModule</title>
<path fill="none" stroke="#000000" d="M690,-122.2396C690,-137.5706 690,-157 690,-157 690,-157 776.221,-157 776.221,-157"/>
<polygon fill="#000000" stroke="#000000" points="776.221,-160.5001 786.221,-157 776.2209,-153.5001 776.221,-160.5001"/>
</g>
<!-- MainWelcomeComponent -->
<g id="node8" class="node">
<title>MainWelcomeComponent</title>
<polygon fill="#ffffb3" stroke="#000000" points="606.0225,-122 441.9775,-122 441.9775,-86 606.0225,-86 606.0225,-122"/>
<text text-anchor="middle" x="524" y="-99.8" font-family="Times,serif" font-size="14.00" fill="#000000">MainWelcomeComponent</text>
</g>
<!-- MainWelcomeComponent&#45;&gt;AppModule -->
<g id="edge8" class="edge">
<title>MainWelcomeComponent&#45;&gt;AppModule</title>
<path fill="none" stroke="#000000" d="M524,-122.0225C524,-139.3734 524,-163 524,-163 524,-163 776.0493,-163 776.0493,-163"/>
<polygon fill="#000000" stroke="#000000" points="776.0493,-166.5001 786.0493,-163 776.0492,-159.5001 776.0493,-166.5001"/>
</g>
<!-- LogosComponent -->
<g id="node9" class="node">
<title>LogosComponent</title>
<polygon fill="#ffffb3" stroke="#000000" points="424.3301,-122 307.6699,-122 307.6699,-86 424.3301,-86 424.3301,-122"/>
<text text-anchor="middle" x="366" y="-99.8" font-family="Times,serif" font-size="14.00" fill="#000000">LogosComponent</text>
</g>
<!-- LogosComponent&#45;&gt;AppModule -->
<g id="edge9" class="edge">
<title>LogosComponent&#45;&gt;AppModule</title>
<path fill="none" stroke="#000000" d="M366,-122.1061C366,-141.3391 366,-169 366,-169 366,-169 776.1857,-169 776.1857,-169"/>
<polygon fill="#000000" stroke="#000000" points="776.1858,-172.5001 786.1857,-169 776.1857,-165.5001 776.1858,-172.5001"/>
</g>
<!-- AppComponent  -->
<g id="node12" class="node">
<title>AppComponent </title>
<polygon fill="#80b1d3" stroke="#000000" points="882.439,-252 773.561,-252 773.561,-216 882.439,-216 882.439,-252"/>
<text text-anchor="middle" x="828" y="-229.8" font-family="Times,serif" font-size="14.00" fill="#000000">AppComponent </text>
</g>
<!-- AppModule&#45;&gt;AppComponent  -->
<g id="edge11" class="edge">
<title>AppModule&#45;&gt;AppComponent </title>
<path fill="none" stroke="#000000" stroke-dasharray="1,5" d="M828,-187.1061C828,-187.1061 828,-205.991 828,-205.991"/>
<polygon fill="#000000" stroke="#000000" points="824.5001,-205.9909 828,-215.991 831.5001,-205.991 824.5001,-205.9909"/>
</g>
<!-- AppRoutingModule -->
<g id="node11" class="node">
<title>AppRoutingModule</title>
<polygon fill="#8dd3c7" stroke="#000000" points="284.2744,-122 281.2744,-126 260.2744,-126 257.2744,-122 155.7256,-122 155.7256,-86 284.2744,-86 284.2744,-122"/>
<text text-anchor="middle" x="220" y="-99.8" font-family="Times,serif" font-size="14.00" fill="#000000">AppRoutingModule</text>
</g>
<!-- AppRoutingModule&#45;&gt;AppModule -->
<g id="edge10" class="edge">
<title>AppRoutingModule&#45;&gt;AppModule</title>
<path fill="none" stroke="#000000" d="M220,-122.2843C220,-143.3211 220,-175 220,-175 220,-175 776.2097,-175 776.2097,-175"/>
<polygon fill="#000000" stroke="#000000" points="776.2097,-178.5001 786.2097,-175 776.2097,-171.5001 776.2097,-178.5001"/>
</g>
<!-- ApiService -->
<g id="node13" class="node">
<title>ApiService</title>
<ellipse fill="#fdb462" stroke="#000000" cx="78" cy="-104" rx="54.4508" ry="18"/>
<text text-anchor="middle" x="78" y="-99.8" font-family="Times,serif" font-size="14.00" fill="#000000">ApiService</text>
</g>
<!-- ApiService&#45;&gt;AppModule -->
<g id="edge12" class="edge">
<title>ApiService&#45;&gt;AppModule</title>
<path fill="none" stroke="#000000" d="M78,-122.2479C78,-145.0179 78,-181 78,-181 78,-181 776.3394,-181 776.3394,-181"/>
<polygon fill="#000000" stroke="#000000" points="776.3395,-184.5001 786.3394,-181 776.3394,-177.5001 776.3395,-184.5001"/>
</g>
</g>
</svg>
