<?xml version="1.0" encoding="UTF-8" standalone="no"?>
<!DOCTYPE svg PUBLIC "-//W3C//DTD SVG 1.1//EN"
 "http://www.w3.org/Graphics/SVG/1.1/DTD/svg11.dtd">
<!-- Generated by graphviz version 2.40.1 (20161225.0304)
 -->
<!-- Title: dependencies Pages: 1 -->
<svg width="1275pt" height="284pt"
 viewBox="0.00 0.00 1275.00 284.00" xmlns="http://www.w3.org/2000/svg" xmlns:xlink="http://www.w3.org/1999/xlink">
<g id="graph0" class="graph" transform="scale(1 1) rotate(0) translate(4 280)">
<title>dependencies</title>
<polygon fill="#ffffff" stroke="transparent" points="-4,4 -4,-280 1271,-280 1271,4 -4,4"/>
<text text-anchor="start" x="612.5091" y="-42.4" font-family="sans-serif" font-weight="bold" font-size="14.00" fill="#000000">Legend</text>
<polygon fill="#ffffb3" stroke="transparent" points="399.5,-10 399.5,-30 419.5,-30 419.5,-10 399.5,-10"/>
<text text-anchor="start" x="423.129" y="-15.4" font-family="sans-serif" font-size="14.00" fill="#000000"> &#160;Declarations</text>
<polygon fill="#8dd3c7" stroke="transparent" points="512.5,-10 512.5,-30 532.5,-30 532.5,-10 512.5,-10"/>
<text text-anchor="start" x="536.2251" y="-15.4" font-family="sans-serif" font-size="14.00" fill="#000000"> &#160;Module</text>
<polygon fill="#80b1d3" stroke="transparent" points="598.5,-10 598.5,-30 618.5,-30 618.5,-10 598.5,-10"/>
<text text-anchor="start" x="622.2812" y="-15.4" font-family="sans-serif" font-size="14.00" fill="#000000"> &#160;Bootstrap</text>
<polygon fill="#fdb462" stroke="transparent" points="695.5,-10 695.5,-30 715.5,-30 715.5,-10 695.5,-10"/>
<text text-anchor="start" x="719.1732" y="-15.4" font-family="sans-serif" font-size="14.00" fill="#000000"> &#160;Providers</text>
<polygon fill="#fb8072" stroke="transparent" points="791.5,-10 791.5,-30 811.5,-30 811.5,-10 791.5,-10"/>
<text text-anchor="start" x="815.2258" y="-15.4" font-family="sans-serif" font-size="14.00" fill="#000000"> &#160;Exports</text>
<g id="clust1" class="cluster">
<title>cluster_AppModule</title>
<polygon fill="none" stroke="#000000" stroke-dasharray="1,5" points="8,-70 8,-268 1101,-268 1101,-70 8,-70"/>
</g>
<g id="clust2" class="cluster">
<title>cluster_AppModule_declarations</title>
<polygon fill="none" stroke="#000000" points="300,-78 300,-130 1093,-130 1093,-78 300,-78"/>
</g>
<g id="clust8" class="cluster">
<title>cluster_AppModule_imports</title>
<polygon fill="none" stroke="#000000" points="148,-78 148,-130 292,-130 292,-78 148,-78"/>
</g>
<g id="clust10" class="cluster">
<title>cluster_AppModule_bootstrap</title>
<polygon fill="none" stroke="#000000" points="487,-208 487,-260 611,-260 611,-208 487,-208"/>
</g>
<g id="clust11" class="cluster">
<title>cluster_AppModule_providers</title>
<polygon fill="none" stroke="#000000" points="16,-78 16,-130 140,-130 140,-78 16,-78"/>
</g>
<g id="clust18" class="cluster">
<title>cluster_MainContentModule</title>
<polygon fill="none" stroke="#000000" stroke-dasharray="1,5" points="1109,-143 1109,-195 1259,-195 1259,-143 1109,-143"/>
</g>
<!-- AppComponent -->
<g id="node1" class="node">
<title>AppComponent</title>
<polygon fill="#ffffb3" stroke="#000000" points="739.9399,-122 634.0601,-122 634.0601,-86 739.9399,-86 739.9399,-122"/>
<text text-anchor="middle" x="687" y="-99.8" font-family="Times,serif" font-size="14.00" fill="#000000">AppComponent</text>
</g>
<!-- AppModule -->
<g id="node6" class="node">
<title>AppModule</title>
<polygon fill="#8dd3c7" stroke="#000000" points="590.6571,-187 587.6571,-191 566.6571,-191 563.6571,-187 507.3429,-187 507.3429,-151 590.6571,-151 590.6571,-187"/>
<text text-anchor="middle" x="549" y="-164.8" font-family="Times,serif" font-size="14.00" fill="#000000">AppModule</text>
</g>
<!-- AppComponent&#45;&gt;AppModule -->
<g id="edge1" class="edge">
<title>AppComponent&#45;&gt;AppModule</title>
<path fill="none" stroke="#000000" d="M687,-122.2667C687,-140.5552 687,-166 687,-166 687,-166 600.779,-166 600.779,-166"/>
<polygon fill="#000000" stroke="#000000" points="600.7791,-162.5001 590.779,-166 600.779,-169.5001 600.7791,-162.5001"/>
</g>
<!-- MenuBarComponent -->
<g id="node2" class="node">
<title>MenuBarComponent</title>
<polygon fill="#ffffb3" stroke="#000000" points="616.2036,-122 481.7964,-122 481.7964,-86 616.2036,-86 616.2036,-122"/>
<text text-anchor="middle" x="549" y="-99.8" font-family="Times,serif" font-size="14.00" fill="#000000">MenuBarComponent</text>
</g>
<!-- MenuBarComponent&#45;&gt;AppModule -->
<g id="edge2" class="edge">
<title>MenuBarComponent&#45;&gt;AppModule</title>
<path fill="none" stroke="#000000" d="M549,-122.1061C549,-122.1061 549,-140.991 549,-140.991"/>
<polygon fill="#000000" stroke="#000000" points="545.5001,-140.9909 549,-150.991 552.5001,-140.991 545.5001,-140.9909"/>
</g>
<!-- ContactFormComponent -->
<g id="node3" class="node">
<title>ContactFormComponent</title>
<polygon fill="#ffffb3" stroke="#000000" points="912.7133,-122 757.2867,-122 757.2867,-86 912.7133,-86 912.7133,-122"/>
<text text-anchor="middle" x="835" y="-99.8" font-family="Times,serif" font-size="14.00" fill="#000000">ContactFormComponent</text>
</g>
<!-- ContactFormComponent&#45;&gt;AppModule -->
<g id="edge3" class="edge">
<title>ContactFormComponent&#45;&gt;AppModule</title>
<path fill="none" stroke="#000000" d="M809.1311,-122.1289C809.1311,-142.5724 809.1311,-173 809.1311,-173 809.1311,-173 600.7946,-173 600.7946,-173"/>
<polygon fill="#000000" stroke="#000000" points="600.7946,-169.5001 590.7946,-173 600.7945,-176.5001 600.7946,-169.5001"/>
</g>
<!-- MainContentModule -->
<g id="node10" class="node">
<title>MainContentModule</title>
<polygon fill="#8dd3c7" stroke="#000000" points="1250.9327,-187 1247.9327,-191 1226.9327,-191 1223.9327,-187 1117.0673,-187 1117.0673,-151 1250.9327,-151 1250.9327,-187"/>
<text text-anchor="middle" x="1184" y="-164.8" font-family="Times,serif" font-size="14.00" fill="#000000">MainContentModule</text>
</g>
<!-- ContactFormComponent&#45;&gt;MainContentModule -->
<g id="edge9" class="edge">
<title>ContactFormComponent&#45;&gt;MainContentModule</title>
<path fill="none" stroke="#000000" d="M860.8689,-122.0091C860.8689,-138.0494 860.8689,-159 860.8689,-159 860.8689,-159 1107.047,-159 1107.047,-159"/>
<polygon fill="#000000" stroke="#000000" points="1107.0471,-162.5001 1117.047,-159 1107.047,-155.5001 1107.0471,-162.5001"/>
</g>
<!-- MainContentComponent -->
<g id="node4" class="node">
<title>MainContentComponent</title>
<polygon fill="#ffffb3" stroke="#000000" points="463.7147,-122 308.2853,-122 308.2853,-86 463.7147,-86 463.7147,-122"/>
<text text-anchor="middle" x="386" y="-99.8" font-family="Times,serif" font-size="14.00" fill="#000000">MainContentComponent</text>
</g>
<!-- MainContentComponent&#45;&gt;AppModule -->
<g id="edge4" class="edge">
<title>MainContentComponent&#45;&gt;AppModule</title>
<path fill="none" stroke="#000000" d="M386,-122.027C386,-138.3976 386,-160 386,-160 386,-160 497.0234,-160 497.0234,-160"/>
<polygon fill="#000000" stroke="#000000" points="497.0235,-163.5001 507.0234,-160 497.0234,-156.5001 497.0235,-163.5001"/>
</g>
<!-- RightSectionComponent -->
<g id="node5" class="node">
<title>RightSectionComponent</title>
<polygon fill="#ffffb3" stroke="#000000" points="1085.4438,-122 930.5562,-122 930.5562,-86 1085.4438,-86 1085.4438,-122"/>
<text text-anchor="middle" x="1008" y="-99.8" font-family="Times,serif" font-size="14.00" fill="#000000">RightSectionComponent</text>
</g>
<!-- RightSectionComponent&#45;&gt;AppModule -->
<g id="edge5" class="edge">
<title>RightSectionComponent&#45;&gt;AppModule</title>
<path fill="none" stroke="#000000" d="M1008,-122.0109C1008,-144.4852 1008,-180 1008,-180 1008,-180 600.95,-180 600.95,-180"/>
<polygon fill="#000000" stroke="#000000" points="600.95,-176.5001 590.95,-180 600.95,-183.5001 600.95,-176.5001"/>
</g>
<!-- RightSectionComponent&#45;&gt;MainContentModule -->
<g id="edge10" class="edge">
<title>RightSectionComponent&#45;&gt;MainContentModule</title>
<path fill="none" stroke="#000000" d="M1085.4523,-104C1132.671,-104 1184,-104 1184,-104 1184,-104 1184,-140.8939 1184,-140.8939"/>
<polygon fill="#000000" stroke="#000000" points="1180.5001,-140.8938 1184,-150.8939 1187.5001,-140.8939 1180.5001,-140.8938"/>
</g>
<!-- AppComponent  -->
<g id="node8" class="node">
<title>AppComponent </title>
<polygon fill="#80b1d3" stroke="#000000" points="603.439,-252 494.561,-252 494.561,-216 603.439,-216 603.439,-252"/>
<text text-anchor="middle" x="549" y="-229.8" font-family="Times,serif" font-size="14.00" fill="#000000">AppComponent </text>
</g>
<!-- AppModule&#45;&gt;AppComponent  -->
<g id="edge7" class="edge">
<title>AppModule&#45;&gt;AppComponent </title>
<path fill="none" stroke="#000000" stroke-dasharray="1,5" d="M549,-187.1061C549,-187.1061 549,-205.991 549,-205.991"/>
<polygon fill="#000000" stroke="#000000" points="545.5001,-205.9909 549,-215.991 552.5001,-205.991 545.5001,-205.9909"/>
</g>
<!-- AppRoutingModule -->
<g id="node7" class="node">
<title>AppRoutingModule</title>
<polygon fill="#8dd3c7" stroke="#000000" points="284.2744,-122 281.2744,-126 260.2744,-126 257.2744,-122 155.7256,-122 155.7256,-86 284.2744,-86 284.2744,-122"/>
<text text-anchor="middle" x="220" y="-99.8" font-family="Times,serif" font-size="14.00" fill="#000000">AppRoutingModule</text>
</g>
<!-- AppRoutingModule&#45;&gt;AppModule -->
<g id="edge6" class="edge">
<title>AppRoutingModule&#45;&gt;AppModule</title>
<path fill="none" stroke="#000000" d="M220,-122.1061C220,-141.3391 220,-169 220,-169 220,-169 497.3319,-169 497.3319,-169"/>
<polygon fill="#000000" stroke="#000000" points="497.332,-172.5001 507.3319,-169 497.3319,-165.5001 497.332,-172.5001"/>
</g>
<!-- ApiService -->
<g id="node9" class="node">
<title>ApiService</title>
<ellipse fill="#fdb462" stroke="#000000" cx="78" cy="-104" rx="54.4508" ry="18"/>
<text text-anchor="middle" x="78" y="-99.8" font-family="Times,serif" font-size="14.00" fill="#000000">ApiService</text>
</g>
<!-- ApiService&#45;&gt;AppModule -->
<g id="edge8" class="edge">
<title>ApiService&#45;&gt;AppModule</title>
<path fill="none" stroke="#000000" d="M78,-122.2921C78,-144.2057 78,-178 78,-178 78,-178 497.2019,-178 497.2019,-178"/>
<polygon fill="#000000" stroke="#000000" points="497.2019,-181.5001 507.2019,-178 497.2019,-174.5001 497.2019,-181.5001"/>
</g>
</g>
</svg>
