<?xml version="1.0" encoding="UTF-8" standalone="no"?>
<!DOCTYPE svg PUBLIC "-//W3C//DTD SVG 1.1//EN"
 "http://www.w3.org/Graphics/SVG/1.1/DTD/svg11.dtd">
<!-- Generated by graphviz version 2.40.1 (20161225.0304)
 -->
<!-- Title: dependencies Pages: 1 -->
<svg width="2024pt" height="284pt"
 viewBox="0.00 0.00 2024.00 284.00" xmlns="http://www.w3.org/2000/svg" xmlns:xlink="http://www.w3.org/1999/xlink">
<g id="graph0" class="graph" transform="scale(1 1) rotate(0) translate(4 280)">
<title>dependencies</title>
<polygon fill="#ffffff" stroke="transparent" points="-4,4 -4,-280 2020,-280 2020,4 -4,4"/>
<text text-anchor="start" x="987.0091" y="-42.4" font-family="sans-serif" font-weight="bold" font-size="14.00" fill="#000000">Legend</text>
<polygon fill="#ffffb3" stroke="transparent" points="774,-10 774,-30 794,-30 794,-10 774,-10"/>
<text text-anchor="start" x="797.629" y="-15.4" font-family="sans-serif" font-size="14.00" fill="#000000"> &#160;Declarations</text>
<polygon fill="#8dd3c7" stroke="transparent" points="887,-10 887,-30 907,-30 907,-10 887,-10"/>
<text text-anchor="start" x="910.7251" y="-15.4" font-family="sans-serif" font-size="14.00" fill="#000000"> &#160;Module</text>
<polygon fill="#80b1d3" stroke="transparent" points="973,-10 973,-30 993,-30 993,-10 973,-10"/>
<text text-anchor="start" x="996.7812" y="-15.4" font-family="sans-serif" font-size="14.00" fill="#000000"> &#160;Bootstrap</text>
<polygon fill="#fdb462" stroke="transparent" points="1070,-10 1070,-30 1090,-30 1090,-10 1070,-10"/>
<text text-anchor="start" x="1093.6732" y="-15.4" font-family="sans-serif" font-size="14.00" fill="#000000"> &#160;Providers</text>
<polygon fill="#fb8072" stroke="transparent" points="1166,-10 1166,-30 1186,-30 1186,-10 1166,-10"/>
<text text-anchor="start" x="1189.7258" y="-15.4" font-family="sans-serif" font-size="14.00" fill="#000000"> &#160;Exports</text>
<g id="clust1" class="cluster">
<title>cluster_AppModule</title>
<polygon fill="none" stroke="#000000" stroke-dasharray="1,5" points="8,-70 8,-268 1694,-268 1694,-70 8,-70"/>
</g>
<g id="clust2" class="cluster">
<title>cluster_AppModule_declarations</title>
<polygon fill="none" stroke="#000000" points="300,-78 300,-130 1686,-130 1686,-78 300,-78"/>
</g>
<g id="clust12" class="cluster">
<title>cluster_AppModule_imports</title>
<polygon fill="none" stroke="#000000" points="148,-78 148,-130 292,-130 292,-78 148,-78"/>
</g>
<g id="clust14" class="cluster">
<title>cluster_AppModule_bootstrap</title>
<polygon fill="none" stroke="#000000" points="759,-208 759,-260 883,-260 883,-208 759,-208"/>
</g>
<g id="clust15" class="cluster">
<title>cluster_AppModule_providers</title>
<polygon fill="none" stroke="#000000" points="16,-78 16,-130 140,-130 140,-78 16,-78"/>
</g>
<g id="clust22" class="cluster">
<title>cluster_MainContentModule</title>
<polygon fill="none" stroke="#000000" stroke-dasharray="1,5" points="1702,-143 1702,-195 1852,-195 1852,-143 1702,-143"/>
</g>
<g id="clust31" class="cluster">
<title>cluster_RightSectionModule</title>
<polygon fill="none" stroke="#000000" stroke-dasharray="1,5" points="1860,-143 1860,-195 2008,-195 2008,-143 1860,-143"/>
</g>
<!-- AppComponent -->
<g id="node1" class="node">
<title>AppComponent</title>
<polygon fill="#ffffb3" stroke="#000000" points="873.9399,-122 768.0601,-122 768.0601,-86 873.9399,-86 873.9399,-122"/>
<text text-anchor="middle" x="821" y="-99.8" font-family="Times,serif" font-size="14.00" fill="#000000">AppComponent</text>
</g>
<!-- AppModule -->
<g id="node10" class="node">
<title>AppModule</title>
<polygon fill="#8dd3c7" stroke="#000000" points="862.6571,-187 859.6571,-191 838.6571,-191 835.6571,-187 779.3429,-187 779.3429,-151 862.6571,-151 862.6571,-187"/>
<text text-anchor="middle" x="821" y="-164.8" font-family="Times,serif" font-size="14.00" fill="#000000">AppModule</text>
</g>
<!-- AppComponent&#45;&gt;AppModule -->
<g id="edge1" class="edge">
<title>AppComponent&#45;&gt;AppModule</title>
<path fill="none" stroke="#000000" d="M821,-122.1061C821,-122.1061 821,-140.991 821,-140.991"/>
<polygon fill="#000000" stroke="#000000" points="817.5001,-140.9909 821,-150.991 824.5001,-140.991 817.5001,-140.9909"/>
</g>
<!-- MenuBarComponent -->
<g id="node2" class="node">
<title>MenuBarComponent</title>
<polygon fill="#ffffb3" stroke="#000000" points="750.2036,-122 615.7964,-122 615.7964,-86 750.2036,-86 750.2036,-122"/>
<text text-anchor="middle" x="683" y="-99.8" font-family="Times,serif" font-size="14.00" fill="#000000">MenuBarComponent</text>
</g>
<!-- MenuBarComponent&#45;&gt;AppModule -->
<g id="edge2" class="edge">
<title>MenuBarComponent&#45;&gt;AppModule</title>
<path fill="none" stroke="#000000" d="M683,-122.2396C683,-137.5706 683,-157 683,-157 683,-157 769.221,-157 769.221,-157"/>
<polygon fill="#000000" stroke="#000000" points="769.221,-160.5001 779.221,-157 769.2209,-153.5001 769.221,-160.5001"/>
</g>
<!-- ContactFormComponent -->
<g id="node3" class="node">
<title>ContactFormComponent</title>
<polygon fill="#ffffb3" stroke="#000000" points="1401.7133,-122 1246.2867,-122 1246.2867,-86 1401.7133,-86 1401.7133,-122"/>
<text text-anchor="middle" x="1324" y="-99.8" font-family="Times,serif" font-size="14.00" fill="#000000">ContactFormComponent</text>
</g>
<!-- ContactFormComponent&#45;&gt;AppModule -->
<g id="edge3" class="edge">
<title>ContactFormComponent&#45;&gt;AppModule</title>
<path fill="none" stroke="#000000" d="M1298.1311,-122.2843C1298.1311,-143.3211 1298.1311,-175 1298.1311,-175 1298.1311,-175 872.924,-175 872.924,-175"/>
<polygon fill="#000000" stroke="#000000" points="872.9241,-171.5001 862.924,-175 872.924,-178.5001 872.9241,-171.5001"/>
</g>
<!-- MainContentModule -->
<g id="node14" class="node">
<title>MainContentModule</title>
<polygon fill="#8dd3c7" stroke="#000000" points="1843.9327,-187 1840.9327,-191 1819.9327,-191 1816.9327,-187 1710.0673,-187 1710.0673,-151 1843.9327,-151 1843.9327,-187"/>
<text text-anchor="middle" x="1777" y="-164.8" font-family="Times,serif" font-size="14.00" fill="#000000">MainContentModule</text>
</g>
<!-- ContactFormComponent&#45;&gt;MainContentModule -->
<g id="edge13" class="edge">
<title>ContactFormComponent&#45;&gt;MainContentModule</title>
<path fill="none" stroke="#000000" d="M1349.8689,-122.1243C1349.8689,-136.7832 1349.8689,-155 1349.8689,-155 1349.8689,-155 1700.2608,-155 1700.2608,-155"/>
<polygon fill="#000000" stroke="#000000" points="1700.2608,-158.5001 1710.2608,-155 1700.2607,-151.5001 1700.2608,-158.5001"/>
</g>
<!-- MainContentComponent -->
<g id="node4" class="node">
<title>MainContentComponent</title>
<polygon fill="#ffffb3" stroke="#000000" points="463.7147,-122 308.2853,-122 308.2853,-86 463.7147,-86 463.7147,-122"/>
<text text-anchor="middle" x="386" y="-99.8" font-family="Times,serif" font-size="14.00" fill="#000000">MainContentComponent</text>
</g>
<!-- MainContentComponent&#45;&gt;AppModule -->
<g id="edge4" class="edge">
<title>MainContentComponent&#45;&gt;AppModule</title>
<path fill="none" stroke="#000000" d="M386,-122.1061C386,-141.3391 386,-169 386,-169 386,-169 769.2904,-169 769.2904,-169"/>
<polygon fill="#000000" stroke="#000000" points="769.2904,-172.5001 779.2904,-169 769.2903,-165.5001 769.2904,-172.5001"/>
</g>
<!-- RightSectionComponent -->
<g id="node5" class="node">
<title>RightSectionComponent</title>
<polygon fill="#ffffb3" stroke="#000000" points="1228.4438,-122 1073.5562,-122 1073.5562,-86 1228.4438,-86 1228.4438,-122"/>
<text text-anchor="middle" x="1151" y="-99.8" font-family="Times,serif" font-size="14.00" fill="#000000">RightSectionComponent</text>
</g>
<!-- RightSectionComponent&#45;&gt;AppModule -->
<g id="edge5" class="edge">
<title>RightSectionComponent&#45;&gt;AppModule</title>
<path fill="none" stroke="#000000" d="M1125.2595,-122.308C1125.2595,-142.1455 1125.2595,-171 1125.2595,-171 1125.2595,-171 872.668,-171 872.668,-171"/>
<polygon fill="#000000" stroke="#000000" points="872.6681,-167.5001 862.668,-171 872.668,-174.5001 872.6681,-167.5001"/>
</g>
<!-- RightSectionComponent&#45;&gt;MainContentModule -->
<g id="edge14" class="edge">
<title>RightSectionComponent&#45;&gt;MainContentModule</title>
<path fill="none" stroke="#000000" d="M1176.7405,-122.0091C1176.7405,-138.0494 1176.7405,-159 1176.7405,-159 1176.7405,-159 1700.1793,-159 1700.1793,-159"/>
<polygon fill="#000000" stroke="#000000" points="1700.1793,-162.5001 1710.1793,-159 1700.1793,-155.5001 1700.1793,-162.5001"/>
</g>
<!-- BlogComponent -->
<g id="node6" class="node">
<title>BlogComponent</title>
<polygon fill="#ffffb3" stroke="#000000" points="1528.0605,-122 1419.9395,-122 1419.9395,-86 1528.0605,-86 1528.0605,-122"/>
<text text-anchor="middle" x="1474" y="-99.8" font-family="Times,serif" font-size="14.00" fill="#000000">BlogComponent</text>
</g>
<!-- BlogComponent&#45;&gt;AppModule -->
<g id="edge6" class="edge">
<title>BlogComponent&#45;&gt;AppModule</title>
<path fill="none" stroke="#000000" d="M1455.9067,-122.1554C1455.9067,-144.3519 1455.9067,-179 1455.9067,-179 1455.9067,-179 872.658,-179 872.658,-179"/>
<polygon fill="#000000" stroke="#000000" points="872.658,-175.5001 862.658,-179 872.658,-182.5001 872.658,-175.5001"/>
</g>
<!-- RightSectionModule -->
<g id="node15" class="node">
<title>RightSectionModule</title>
<polygon fill="#8dd3c7" stroke="#000000" points="2000.161,-187 1997.161,-191 1976.161,-191 1973.161,-187 1867.839,-187 1867.839,-151 2000.161,-151 2000.161,-187"/>
<text text-anchor="middle" x="1934" y="-164.8" font-family="Times,serif" font-size="14.00" fill="#000000">RightSectionModule</text>
</g>
<!-- BlogComponent&#45;&gt;RightSectionModule -->
<g id="edge16" class="edge">
<title>BlogComponent&#45;&gt;RightSectionModule</title>
<path fill="none" stroke="#000000" d="M1492.0933,-122.0449C1492.0933,-129.749 1492.0933,-137 1492.0933,-137 1492.0933,-137 1911.8899,-137 1911.8899,-137 1911.8899,-137 1911.8899,-140.7566 1911.8899,-140.7566"/>
<polygon fill="#000000" stroke="#000000" points="1908.39,-140.7566 1911.8899,-150.7566 1915.39,-140.7566 1908.39,-140.7566"/>
</g>
<!-- PortfolioComponent -->
<g id="node7" class="node">
<title>PortfolioComponent</title>
<polygon fill="#ffffb3" stroke="#000000" points="1677.608,-122 1546.392,-122 1546.392,-86 1677.608,-86 1677.608,-122"/>
<text text-anchor="middle" x="1612" y="-99.8" font-family="Times,serif" font-size="14.00" fill="#000000">PortfolioComponent</text>
</g>
<!-- PortfolioComponent&#45;&gt;AppModule -->
<g id="edge7" class="edge">
<title>PortfolioComponent&#45;&gt;AppModule</title>
<path fill="none" stroke="#000000" d="M1612,-122.3228C1612,-145.6602 1612,-183 1612,-183 1612,-183 872.6911,-183 872.6911,-183"/>
<polygon fill="#000000" stroke="#000000" points="872.6911,-179.5001 862.6911,-183 872.6911,-186.5001 872.6911,-179.5001"/>
</g>
<!-- PortfolioComponent&#45;&gt;RightSectionModule -->
<g id="edge17" class="edge">
<title>PortfolioComponent&#45;&gt;RightSectionModule</title>
<path fill="none" stroke="#000000" d="M1677.9407,-104C1777.8589,-104 1956.1101,-104 1956.1101,-104 1956.1101,-104 1956.1101,-140.8939 1956.1101,-140.8939"/>
<polygon fill="#000000" stroke="#000000" points="1952.6102,-140.8938 1956.1101,-150.8939 1959.6102,-140.8939 1952.6102,-140.8938"/>
</g>
<!-- MainWelcomeComponent -->
<g id="node8" class="node">
<title>MainWelcomeComponent</title>
<polygon fill="#ffffb3" stroke="#000000" points="1056.0225,-122 891.9775,-122 891.9775,-86 1056.0225,-86 1056.0225,-122"/>
<text text-anchor="middle" x="974" y="-99.8" font-family="Times,serif" font-size="14.00" fill="#000000">MainWelcomeComponent</text>
</g>
<!-- MainWelcomeComponent&#45;&gt;AppModule -->
<g id="edge8" class="edge">
<title>MainWelcomeComponent&#45;&gt;AppModule</title>
<path fill="none" stroke="#000000" d="M946.5797,-122.2222C946.5797,-140.8285 946.5797,-167 946.5797,-167 946.5797,-167 872.8162,-167 872.8162,-167"/>
<polygon fill="#000000" stroke="#000000" points="872.8163,-163.5001 862.8162,-167 872.8162,-170.5001 872.8163,-163.5001"/>
</g>
<!-- MainWelcomeComponent&#45;&gt;MainContentModule -->
<g id="edge15" class="edge">
<title>MainWelcomeComponent&#45;&gt;MainContentModule</title>
<path fill="none" stroke="#000000" d="M1001.4203,-122.0225C1001.4203,-139.3734 1001.4203,-163 1001.4203,-163 1001.4203,-163 1700.2032,-163 1700.2032,-163"/>
<polygon fill="#000000" stroke="#000000" points="1700.2033,-166.5001 1710.2032,-163 1700.2032,-159.5001 1700.2033,-166.5001"/>
</g>
<!-- LogosComponent -->
<g id="node9" class="node">
<title>LogosComponent</title>
<polygon fill="#ffffb3" stroke="#000000" points="598.3301,-122 481.6699,-122 481.6699,-86 598.3301,-86 598.3301,-122"/>
<text text-anchor="middle" x="540" y="-99.8" font-family="Times,serif" font-size="14.00" fill="#000000">LogosComponent</text>
</g>
<!-- LogosComponent&#45;&gt;AppModule -->
<g id="edge9" class="edge">
<title>LogosComponent&#45;&gt;AppModule</title>
<path fill="none" stroke="#000000" d="M540,-122.0225C540,-139.3734 540,-163 540,-163 540,-163 769.2349,-163 769.2349,-163"/>
<polygon fill="#000000" stroke="#000000" points="769.2349,-166.5001 779.2349,-163 769.2348,-159.5001 769.2349,-166.5001"/>
</g>
<!-- AppComponent  -->
<g id="node12" class="node">
<title>AppComponent </title>
<polygon fill="#80b1d3" stroke="#000000" points="875.439,-252 766.561,-252 766.561,-216 875.439,-216 875.439,-252"/>
<text text-anchor="middle" x="821" y="-229.8" font-family="Times,serif" font-size="14.00" fill="#000000">AppComponent </text>
</g>
<!-- AppModule&#45;&gt;AppComponent  -->
<g id="edge11" class="edge">
<title>AppModule&#45;&gt;AppComponent </title>
<path fill="none" stroke="#000000" stroke-dasharray="1,5" d="M821,-187.1061C821,-187.1061 821,-205.991 821,-205.991"/>
<polygon fill="#000000" stroke="#000000" points="817.5001,-205.9909 821,-215.991 824.5001,-205.991 817.5001,-205.9909"/>
</g>
<!-- AppRoutingModule -->
<g id="node11" class="node">
<title>AppRoutingModule</title>
<polygon fill="#8dd3c7" stroke="#000000" points="284.2744,-122 281.2744,-126 260.2744,-126 257.2744,-122 155.7256,-122 155.7256,-86 284.2744,-86 284.2744,-122"/>
<text text-anchor="middle" x="220" y="-99.8" font-family="Times,serif" font-size="14.00" fill="#000000">AppRoutingModule</text>
</g>
<!-- AppRoutingModule&#45;&gt;AppModule -->
<g id="edge10" class="edge">
<title>AppRoutingModule&#45;&gt;AppModule</title>
<path fill="none" stroke="#000000" d="M220,-122.2843C220,-143.3211 220,-175 220,-175 220,-175 769.216,-175 769.216,-175"/>
<polygon fill="#000000" stroke="#000000" points="769.216,-178.5001 779.216,-175 769.216,-171.5001 769.216,-178.5001"/>
</g>
<!-- ApiService -->
<g id="node13" class="node">
<title>ApiService</title>
<ellipse fill="#fdb462" stroke="#000000" cx="78" cy="-104" rx="54.4508" ry="18"/>
<text text-anchor="middle" x="78" y="-99.8" font-family="Times,serif" font-size="14.00" fill="#000000">ApiService</text>
</g>
<!-- ApiService&#45;&gt;AppModule -->
<g id="edge12" class="edge">
<title>ApiService&#45;&gt;AppModule</title>
<path fill="none" stroke="#000000" d="M78,-122.2479C78,-145.0179 78,-181 78,-181 78,-181 769.193,-181 769.193,-181"/>
<polygon fill="#000000" stroke="#000000" points="769.193,-184.5001 779.193,-181 769.193,-177.5001 769.193,-184.5001"/>
</g>
</g>
</svg>
